<svg xmlns="http://www.w3.org/2000/svg" xmlns:xlink="http://www.w3.org/1999/xlink" width="500" zoomAndPan="magnify" viewBox="0 0 375 374.999991" height="500" preserveAspectRatio="xMidYMid meet" version="1.0"><defs><filter x="0%" y="0%" width="100%" height="100%" id="3f611d1461"><feColorMatrix values="0 0 0 0 1 0 0 0 0 1 0 0 0 0 1 0 0 0 1 0" color-interpolation-filters="sRGB"/></filter><g/><mask id="af453c0502"><g filter="url(#3f611d1461)"><rect x="-37.5" width="450" fill="#000000" y="-37.499999" height="449.999989" fill-opacity="0.4"/></g></mask><clipPath id="0b7028e72c"><path d="M 90 46 L 236.898438 46 L 236.898438 257.78125 L 90 257.78125 Z M 90 46 " clip-rule="nonzero"/></clipPath><clipPath id="9efda50e7f"><path d="M 0.648438 0.53125 L 147 0.53125 L 147 212 L 0.648438 212 Z M 0.648438 0.53125 " clip-rule="nonzero"/></clipPath><clipPath id="7f7f5c7422"><rect x="0" width="238" y="0" height="258"/></clipPath></defs><rect x="-37.5" width="450" fill="#ffffff" y="-37.499999" height="449.999989" fill-opacity="1"/><rect x="-37.5" width="450" fill="#000000" y="-37.499999" height="449.999989" fill-opacity="1"/><g mask="url(#af453c0502)"><g transform="matrix(1, 0, 0, 1, 71, 62)"><g clip-path="url(#7f7f5c7422)"><g clip-path="url(#0b7028e72c)"><path fill="#ffffff" d="M 237.039062 256.964844 C 230.238281 246.125 223.429688 235.289062 216.617188 224.449219 L 206.390625 208.230469 L 196.128906 192.003906 L 175.566406 159.578125 L 156.277344 129.203125 L 181.113281 92.734375 L 187.652344 83.148438 C 189.839844 79.957031 192.007812 76.753906 194.210938 73.574219 L 207.421875 54.488281 L 212.761719 46.773438 L 142.324219 46.300781 L 140.839844 48.953125 C 138.667969 52.839844 136.546875 56.75 134.40625 60.648438 L 132.800781 63.578125 L 131.222656 66.523438 L 128.046875 72.398438 L 121.769531 84.183594 L 118.566406 90.261719 C 117.347656 88.410156 116.125 86.558594 114.902344 84.710938 L 111.160156 79.109375 L 107.375 73.527344 L 103.59375 67.957031 L 99.761719 62.410156 C 97.191406 58.714844 94.585938 55.046875 91.941406 51.402344 C 91.863281 51.269531 91.753906 51.1875 91.609375 51.148438 C 91.460938 51.109375 91.324219 51.128906 91.191406 51.207031 C 91.0625 51.28125 90.976562 51.394531 90.9375 51.539062 C 90.902344 51.6875 90.917969 51.824219 90.996094 51.953125 C 92.914062 56.019531 94.886719 60.0625 96.914062 64.082031 L 99.945312 70.105469 L 103.019531 76.109375 L 106.113281 82.09375 L 109.238281 88.058594 C 111.34375 92.027344 113.441406 95.996094 115.574219 99.949219 L 118.652344 105.648438 L 122.316406 99.902344 C 124.707031 96.144531 127.042969 92.367188 129.40625 88.59375 L 136.433594 77.246094 L 139.917969 71.550781 L 141.65625 68.714844 L 143.382812 65.878906 C 145.125 62.988281 146.875 60.105469 148.605469 57.210938 C 149.988281 57.210938 192.097656 57.050781 193.773438 57.019531 L 186.535156 68.511719 C 184.480469 71.785156 182.382812 75.035156 180.308594 78.300781 L 174.058594 88.078125 L 149.03125 127.171875 L 147.726562 129.203125 L 149.03125 131.09375 L 170.730469 162.769531 L 192.476562 194.410156 L 203.351562 210.222656 L 214.261719 226.019531 C 221.53125 236.5625 228.824219 247.085938 236.140625 257.578125 C 236.222656 257.703125 236.339844 257.777344 236.484375 257.804688 C 236.628906 257.832031 236.761719 257.808594 236.882812 257.726562 C 237.007812 257.644531 237.082031 257.53125 237.113281 257.386719 C 237.144531 257.242188 237.121094 257.109375 237.039062 256.984375 Z M 237.039062 256.964844 " fill-opacity="1" fill-rule="nonzero"/></g><g clip-path="url(#9efda50e7f)"><path fill="#ffffff" d="M 140.949219 194.1875 L 137.917969 188.160156 L 134.847656 182.160156 L 131.746094 176.175781 L 128.621094 170.210938 C 126.519531 166.238281 124.425781 162.265625 122.289062 158.320312 L 119.210938 152.613281 L 115.546875 158.367188 C 113.152344 162.121094 110.820312 165.902344 108.453125 169.675781 L 101.425781 181.023438 L 97.945312 186.71875 L 96.199219 189.554688 L 94.480469 192.390625 C 92.738281 195.28125 91.003906 198.171875 89.28125 201.058594 C 87.898438 201.058594 45.785156 201.222656 44.109375 201.253906 L 51.328125 189.761719 C 53.386719 186.488281 55.484375 183.234375 57.558594 179.972656 L 63.808594 170.191406 L 88.835938 131.097656 L 90.136719 129.066406 L 88.835938 127.175781 L 67.136719 95.566406 L 45.390625 63.992188 L 34.515625 48.210938 L 23.59375 32.449219 C 16.332031 21.933594 9.042969 11.441406 1.722656 0.964844 C 1.640625 0.84375 1.527344 0.769531 1.386719 0.742188 C 1.246094 0.710938 1.113281 0.734375 0.992188 0.8125 C 0.867188 0.890625 0.789062 1.003906 0.757812 1.148438 C 0.722656 1.292969 0.746094 1.429688 0.824219 1.554688 C 7.628906 12.378906 14.4375 23.195312 21.246094 34.003906 L 31.472656 50.214844 L 41.734375 66.402344 L 62.289062 98.765625 L 81.582031 129.070312 L 56.765625 165.539062 L 50.226562 175.125 C 48.035156 178.3125 45.871094 181.519531 43.664062 184.699219 L 30.453125 203.785156 L 25.117188 211.5 L 95.558594 211.972656 L 97.046875 209.296875 C 99.21875 205.410156 101.34375 201.5 103.480469 197.601562 L 105.085938 194.671875 L 106.671875 191.734375 L 109.847656 185.863281 L 116.09375 174.089844 L 119.296875 168.015625 L 122.957031 173.558594 L 126.703125 179.160156 L 130.484375 184.746094 L 134.265625 190.316406 L 138.101562 195.863281 C 140.667969 199.554688 143.273438 203.222656 145.921875 206.867188 C 146.003906 206.980469 146.113281 207.046875 146.246094 207.074219 C 146.382812 207.101562 146.511719 207.082031 146.628906 207.011719 C 146.75 206.941406 146.828125 206.839844 146.871094 206.707031 C 146.910156 206.574219 146.902344 206.445312 146.84375 206.320312 C 144.9375 202.261719 142.972656 198.21875 140.949219 194.1875 Z M 140.949219 194.1875 " fill-opacity="1" fill-rule="nonzero"/></g></g></g></g><g fill="#ffffff" fill-opacity="1"><g transform="translate(112.162749, 203.409918)"><g><path d="M 3.4375 -30.15625 L 18.390625 -30.15625 L 18.390625 -24.53125 L 9.03125 -24.53125 L 9.03125 -19.15625 L 18.390625 -19.15625 L 18.390625 -13.53125 L 9.03125 -13.53125 L 9.03125 0 L 3.4375 0 Z M 3.4375 -30.15625 "/></g></g></g><g fill="#ffffff" fill-opacity="1"><g transform="translate(148.198738, 203.409918)"><g><path d="M 23.09375 0 L 20.796875 -6.21875 L 8.28125 -6.21875 L 5.96875 0 L 0 0 L 11.640625 -30.15625 L 17.4375 -30.15625 L 29.0625 0 Z M 10.421875 -11.84375 L 18.6875 -11.84375 L 14.53125 -22.9375 Z M 10.421875 -11.84375 "/></g></g></g><g fill="#ffffff" fill-opacity="1"><g transform="translate(193.264733, 203.409918)"><g><path d="M 17.9375 0.75 C 14.820312 0.75 12.050781 0.0703125 9.625 -1.28125 C 7.207031 -2.632812 5.328125 -4.515625 3.984375 -6.921875 C 2.640625 -9.335938 1.96875 -12.070312 1.96875 -15.125 C 1.96875 -18.195312 2.695312 -20.9375 4.15625 -23.34375 C 5.613281 -25.757812 7.566406 -27.625 10.015625 -28.9375 C 12.460938 -30.25 15.128906 -30.90625 18.015625 -30.90625 C 20.484375 -30.90625 22.859375 -30.378906 25.140625 -29.328125 C 27.421875 -28.285156 29.375 -26.796875 31 -24.859375 L 26.96875 -21 C 25.59375 -22.457031 24.160156 -23.554688 22.671875 -24.296875 C 21.191406 -25.035156 19.597656 -25.40625 17.890625 -25.40625 C 16.015625 -25.40625 14.289062 -24.957031 12.71875 -24.0625 C 11.15625 -23.164062 9.910156 -21.929688 8.984375 -20.359375 C 8.066406 -18.796875 7.609375 -17.050781 7.609375 -15.125 C 7.609375 -13.070312 8.054688 -11.257812 8.953125 -9.6875 C 9.847656 -8.125 11.082031 -6.910156 12.65625 -6.046875 C 14.238281 -5.179688 16.023438 -4.75 18.015625 -4.75 C 19.804688 -4.75 21.394531 -5.097656 22.78125 -5.796875 C 24.164062 -6.492188 25.613281 -7.597656 27.125 -9.109375 L 31.03125 -5.046875 C 29.632812 -3.671875 28.296875 -2.566406 27.015625 -1.734375 C 25.742188 -0.910156 24.375 -0.289062 22.90625 0.125 C 21.4375 0.539062 19.78125 0.75 17.9375 0.75 Z M 17.9375 0.75 "/></g></g></g><g fill="#ffffff" fill-opacity="1"><g transform="translate(242.026723, 203.409918)"><g><path d="M 5.84375 -24.53125 L 0.46875 -24.53125 L 0.46875 -30.15625 L 17.140625 -30.15625 L 17.140625 -24.53125 L 11.59375 -24.53125 L 11.59375 0 L 5.84375 0 Z M 5.84375 -24.53125 "/></g></g></g></svg>